<svg xmlns="http://www.w3.org/2000/svg" xmlns:xlink="http://www.w3.org/1999/xlink" width="1920" height="303.75" viewBox="0 0 1920 303.75"><defs><style>.a{fill:#f70;}.b{clip-path:url(#a);}.c{fill:url(#b);}</style><clipPath id="a"><rect class="a" width="303.75" height="1920" transform="translate(0)"/></clipPath><linearGradient id="b" y1="0.5" x2="1" y2="0.5" gradientUnits="objectBoundingBox"><stop offset="0" stop-color="#f70"/><stop offset="1" stop-color="#ff9233"/></linearGradient></defs><g class="b" transform="translate(1920) rotate(90)"><rect class="a" width="354.232" height="1920" transform="translate(-33.37)"/><path class="c" d="M88.293,215.915l-351.17,985.627,422.338-150.475c67.49-24.046,112.214-92.911,99.894-153.813L254.9,875.23c-10.731-53.045,20.092-122.817,94.615-149.368L659.97,615.249c67.49-24.046,112.214-92.91,99.894-153.812l-4.455-22.025c-12.321-60.9,32.4-129.766,99.894-153.812l291.658-103.915c67.49-24.046,112.214-92.91,99.894-153.812L1242.4,5.847c-12.321-60.9,32.4-129.766,99.894-153.813l47.407-16.891,375.432-133.763,33.835-94.965Z" transform="translate(1006.992 1005.642) rotate(135)"/></g></svg>